<?xml version="1.0" standalone="no"?>
<!DOCTYPE svg PUBLIC "-//W3C//DTD SVG 20010904//EN"
 "http://www.w3.org/TR/2001/REC-SVG-20010904/DTD/svg10.dtd">
<svg version="1.0" xmlns="http://www.w3.org/2000/svg"
 width="256.000000pt" height="256.000000pt" viewBox="0 0 256.000000 256.000000"
 preserveAspectRatio="xMidYMid meet">

<g transform="translate(0.000000,256.000000) scale(0.100000,-0.100000)"
fill="#000000" stroke="none">
<path d="M1821 2439 c-212 -41 -371 -243 -371 -468 1 -167 27 -217 256 -493
102 -123 194 -229 204 -236 11 -8 25 -10 33 -5 28 15 389 458 413 505 13 26
31 76 39 110 83 354 -214 658 -574 587z m202 -74 c126 -33 217 -106 274 -221
30 -62 37 -88 41 -153 6 -100 -21 -195 -75 -269 -57 -77 -327 -401 -335 -401
-16 -2 -157 180 -173 223 -33 86 -2 219 70 305 35 40 122 111 138 111 6 0 -2
-12 -18 -27 -37 -35 -95 -106 -123 -154 -27 -46 -55 -153 -47 -180 6 -19 12
-20 53 -14 63 9 161 55 209 99 22 19 55 64 74 98 33 62 34 65 34 183 0 138
-15 194 -75 272 -53 70 -132 108 -226 108 -76 0 -76 10 -1 24 66 14 118 12
180 -4z m-67 -76 c44 -21 114 -90 114 -112 0 -7 -29 -20 -69 -30 -243 -63
-341 -216 -301 -473 7 -46 11 -86 8 -89 -8 -9 -126 140 -153 193 -79 157 -48
345 76 456 62 56 113 74 208 75 56 1 85 -4 117 -20z"/>
<path d="M709 1346 c-28 -16 -59 -71 -59 -103 0 -11 -13 -29 -30 -41 l-30 -23
0 -115 c0 -115 0 -117 -30 -151 -29 -33 -30 -37 -30 -132 0 -77 -3 -101 -15
-111 -24 -20 -43 3 -21 25 29 29 11 95 -26 95 -6 0 -8 10 -4 25 12 49 -34 92
-80 75 -15 -6 -26 -3 -37 11 -23 26 -72 25 -90 -2 -12 -17 -19 -19 -35 -10
-26 14 -68 -1 -75 -26 -11 -39 -7 -184 5 -206 6 -12 15 -50 19 -84 8 -79 40
-124 104 -148 58 -23 158 -16 215 14 l40 21 0 -119 c0 -180 -54 -162 485 -159
l450 3 13 28 c7 15 28 33 46 41 46 19 110 79 130 120 20 43 20 86 -1 153 -21
67 -61 115 -118 143 l-45 22 0 95 c0 92 -1 95 -30 125 -30 30 -30 30 -30 148
l0 119 -29 22 c-20 14 -31 33 -35 59 -8 53 -63 100 -116 100 -42 0 -94 -35
-105 -70 -7 -20 -55 -29 -55 -10 0 5 -9 14 -20 20 -15 8 -24 6 -40 -10 l-20
-20 -20 20 c-16 16 -25 18 -40 10 -11 -6 -20 -15 -20 -20 0 -6 -11 -10 -25
-10 -17 0 -28 7 -34 23 -22 56 -107 84 -162 53z m256 -251 c30 -29 31 -45 4
-79 -25 -32 -55 -33 -86 -4 -28 26 -30 61 -3 88 27 27 56 25 85 -5z m169 4
c14 -11 26 -29 26 -40 0 -25 -43 -69 -67 -68 -12 0 -9 4 9 10 48 18 49 83 1
95 -21 6 -31 1 -49 -22 -21 -25 -23 -26 -17 -6 6 23 39 52 59 52 6 0 23 -9 38
-21z m-74 -84 c14 -19 14 -19 -2 -6 -10 7 -18 18 -18 24 0 6 1 8 3 6 1 -2 9
-13 17 -24z m-166 -59 c-11 -28 22 -82 61 -100 21 -10 40 -27 42 -37 7 -25 19
-24 26 1 3 11 16 24 30 29 40 15 67 51 67 88 l0 33 60 0 60 0 0 -44 c0 -48
-24 -116 -41 -116 -6 0 -26 -12 -46 -27 -37 -28 -70 -35 -160 -35 -128 0 -213
71 -213 177 l0 45 60 0 c46 0 58 -3 54 -14z m332 -204 c-7 -20 -46 -42 -74
-42 -10 1 -2 9 19 20 20 11 39 27 43 36 9 23 19 10 12 -14z m302 -106 c15 -8
36 -24 47 -37 20 -22 20 -22 0 -15 -11 4 -35 10 -52 13 -26 5 -33 10 -33 29 0
28 2 29 38 10z m-1052 -32 c26 -138 -143 -229 -237 -128 l-24 26 40 -21 c49
-26 80 -27 124 -3 42 23 71 74 71 124 0 48 17 49 26 2z m54 -43 c0 -66 -2 -71
-30 -91 -36 -25 -36 -25 -10 25 12 23 20 57 19 80 -1 52 -1 55 11 55 6 0 10
-30 10 -69z m108 58 c33 -8 62 -25 97 -59 28 -26 71 -62 98 -79 l47 -32 51 43
c64 54 95 53 156 -3 24 -21 45 -39 48 -39 15 0 96 59 145 105 50 47 109 75
160 75 7 0 10 -66 8 -212 l-3 -213 -435 0 -435 0 -3 213 c-2 146 1 212 8 212
6 0 32 -5 58 -11z m225 -55 c37 -9 67 -20 67 -24 0 -5 -12 -18 -26 -29 l-26
-21 -42 29 c-22 16 -50 39 -61 51 l-20 23 20 -6 c11 -3 50 -14 88 -23z m381 5
c-10 -12 -38 -35 -62 -51 l-44 -30 -24 23 c-13 12 -24 26 -24 30 0 5 133 45
164 48 5 1 1 -9 -10 -20z m339 -17 c38 -23 64 -79 59 -130 -2 -24 -8 -39 -14
-36 -5 3 -7 8 -4 11 9 9 -24 77 -51 105 -15 15 -41 32 -59 38 -23 8 -31 16
-27 26 7 18 52 11 96 -14z"/>
<path d="M897 1082 c-22 -24 -21 -45 1 -65 26 -24 49 -21 68 8 15 23 15 27 0
50 -19 30 -46 32 -69 7z"/>
<path d="M933 423 c-91 -4 -93 -4 -93 -28 l0 -25 271 0 270 0 -3 28 -3 27
-175 1 c-96 0 -217 -1 -267 -3z"/>
<path d="M640 395 c0 -24 2 -25 75 -25 73 0 75 1 75 25 0 24 -2 25 -75 25 -73
0 -75 -1 -75 -25z"/>
<path d="M640 295 c0 -24 2 -25 75 -25 73 0 75 1 75 25 0 24 -2 25 -75 25 -73
0 -75 -1 -75 -25z"/>
<path d="M840 295 l0 -25 270 0 270 0 0 25 0 25 -270 0 -270 0 0 -25z"/>
</g>
</svg>
